<?xml version="1.0" encoding="utf-8"?>
<!-- Generator: Adobe Illustrator 24.3.0, SVG Export Plug-In . SVG Version: 6.00 Build 0)  -->
<svg version="1.1" id="Layer_1" xmlns="http://www.w3.org/2000/svg" xmlns:xlink="http://www.w3.org/1999/xlink" x="0px" y="0px"
	 viewBox="0 0 169.73 98.1" style="enable-background:new 0 0 169.73 98.1;" xml:space="preserve">
<style type="text/css">
	.st0{fill:#FFFFFF;}
</style>
<g id="Layer_2_1_">
	<g id="Layer_1-2">
		<path class="st0" d="M163.18,25.44c1.78-1.08,3.45-2.33,5-3.73c2.48-2.59,1.79-5.76-1.36-7.34c-0.71-0.27-1.13-1-1-1.75
			c0.11-4-2.37-6.09-6.26-4.95c-1.9,0.71-3.75,1.57-5.52,2.57c0.07-0.41,0.23-1.09,0.32-1.78c0.37-2.21-0.08-4.48-1.28-6.38
			c-1.1-1.96-3.57-2.65-5.53-1.56c-0.14,0.08-0.27,0.16-0.4,0.26c-0.85,0.68-2.06,0.68-2.91,0c-1.9-1.31-4.49-0.83-5.8,1.07
			c-0.12,0.18-0.23,0.36-0.32,0.55c-1.1,1.95-1.45,4.24-1,6.43c0.09,0.53,0.17,1.07,0.2,1.22c-1.86-1.04-3.81-1.92-5.82-2.63
			c-3.61-1-6.08,1.14-5.93,4.88c0.15,0.87-0.37,1.73-1.21,2c-2.73,1.37-3.58,4.47-1.62,6.81c1.27,1.52,3.14,2.53,4.77,3.75
			c0.26,0.18,0.54,0.32,0.83,0.42c-1.77,1.33-3.8,2.44-5.27,4.07c-2.34,2.57-1.56,5.51,1.47,7.26c0.56,0.39,0.91,1.01,0.95,1.69
			c-0.21,3.29,1.66,5.52,4.91,5.1c1.95-0.26,3.8-1.34,5.68-2.09c0.32-0.15,0.61-0.35,0.87-0.59c0.15,2.3,0.49,4.58,1,6.83
			c0.78,2.61,3,3.57,5.86,3c-1.54,9.51-4.13,18.34-9.87,25.85V61.79c0.01-0.65-0.27-1.27-0.77-1.69c-0.59-0.49-1.35-0.73-2.11-0.69
			c-0.35-0.01-0.7,0.08-1,0.26c-0.25,0.12-0.41,0.37-0.42,0.65c0,0.22,0.04,0.43,0.12,0.64c0.1,0.36,0.14,0.73,0.12,1.1v6.06
			c-0.11,0.54-0.25,1.1-0.43,1.69c-0.18,0.56-0.42,1.1-0.73,1.61c-0.26,0.46-0.59,0.88-1,1.22c-0.4,0.33-0.9,0.5-1.41,0.49
			c-0.92,0.06-1.8-0.37-2.31-1.13c-0.56-0.9-0.83-1.94-0.8-3c0,0,0-0.09,0-0.14c0.03-0.07,0.04-0.15,0.05-0.23V68.5
			c0-0.17-0.03-0.34-0.08-0.51c0.04-1.47,0.32-2.92,0.83-4.29c0.47-1.28,1.17-2.47,2.08-3.49c0.79-0.88,1.77-1.58,2.85-2.05
			c0.98-0.43,2.03-0.66,3.1-0.67c0.27-0.02,0.54-0.02,0.81,0c0.25,0.04,0.51,0.06,0.76,0.06c0.22,0.02,0.43-0.09,0.54-0.28
			c0.12-0.32,0.17-0.66,0.14-1c0.04-0.63-0.21-1.24-0.68-1.67c-0.5-0.41-1.13-0.62-1.78-0.59c-1.64,0-3.27,0.34-4.77,1
			c-1.54,0.72-2.91,1.73-4.05,2.99c-1.23,1.32-2.2,2.86-2.85,4.55c-0.74,1.91-1.11,3.95-1.08,6c0.01,0.78,0.09,1.56,0.23,2.33
			c-0.1,0.25-0.2,0.5-0.32,0.74c-0.25,0.53-0.59,1.02-1,1.44c-0.37,0.38-0.87,0.59-1.4,0.58c-0.3,0.02-0.59-0.09-0.8-0.31
			c-0.18-0.22-0.32-0.47-0.4-0.74c-0.09-0.26-0.14-0.54-0.16-0.82c0-0.28,0-0.47,0-0.59V60.06c0-0.63-0.07-1.26-0.2-1.88
			c-0.12-0.62-0.35-1.22-0.69-1.76c-0.34-0.54-0.81-0.98-1.36-1.29c-0.68-0.36-1.44-0.53-2.21-0.5c-0.64,0-1.27,0.14-1.85,0.41
			c-0.59,0.29-1.13,0.67-1.6,1.13c-0.52,0.51-0.99,1.08-1.39,1.69c-0.44,0.67-0.84,1.38-1.19,2.1v-2.42c0-0.64-0.28-1.25-0.77-1.66
			c-0.6-0.49-1.35-0.73-2.12-0.69c-0.35-0.01-0.69,0.07-1,0.24c-0.25,0.12-0.41,0.37-0.42,0.65c0.01,0.21,0.04,0.43,0.11,0.63
			c0.1,0.36,0.14,0.73,0.12,1.1v9.33c-0.09,0.23-0.16,0.47-0.21,0.71c-0.12,0.6-0.28,1.23-0.47,1.91c-0.18,0.65-0.42,1.27-0.72,1.87
			c-0.25,0.53-0.59,1.02-1,1.44c-0.36,0.37-0.86,0.58-1.38,0.58c-0.3,0.03-0.6-0.09-0.81-0.31c-0.2-0.21-0.34-0.46-0.42-0.74
			c-0.09-0.27-0.14-0.54-0.16-0.82c0-0.28,0-0.47,0-0.59V57.54c0-0.64-0.28-1.25-0.77-1.66c-0.59-0.49-1.35-0.73-2.11-0.69
			c-0.35-0.01-0.69,0.07-1,0.24c-0.25,0.12-0.41,0.37-0.42,0.65c0,0.22,0.05,0.43,0.12,0.63c0.1,0.36,0.14,0.73,0.12,1.1v14.35
			c0,0.66,0.1,1.31,0.3,1.94c0.19,0.59,0.48,1.13,0.88,1.6c0.82,0.98,2.05,1.53,3.33,1.49c1.06,0.02,2.1-0.26,3-0.81
			c0.65-0.43,1.24-0.95,1.75-1.55c-0.02,0.42,0.07,0.84,0.25,1.22c0.15,0.28,0.37,0.53,0.63,0.71c0.26,0.17,0.54,0.28,0.84,0.34
			c0.28,0.06,0.56,0.09,0.85,0.09c0.26,0.01,0.52-0.06,0.75-0.19c0.19-0.14,0.35-0.33,0.45-0.55c0.1-0.24,0.15-0.49,0.16-0.74
			c0-0.27,0-0.53,0-0.79V67c0.11-1.09,0.37-2.17,0.77-3.19c0.39-0.98,0.88-1.92,1.46-2.81c0.47-0.73,1.03-1.4,1.66-2
			c0.36-0.42,0.86-0.7,1.41-0.78c0.23-0.01,0.46,0.07,0.62,0.24c0.16,0.19,0.28,0.42,0.34,0.67c0.09,0.33,0.14,0.66,0.14,1
			c0,0.37,0,0.76,0,1.18v10.85c0,0.66,0.1,1.31,0.3,1.94c0.37,1.18,1.2,2.15,2.31,2.69c0.59,0.28,1.24,0.42,1.9,0.4
			c1.06,0.02,2.1-0.26,3-0.81c0.83-0.53,1.56-1.21,2.16-2c1.1,1.49,2.86,2.34,4.71,2.28c0.9,0.04,1.8-0.16,2.61-0.56
			c0.7-0.36,1.34-0.82,1.9-1.37v5.64c-0.9,0.78-1.74,1.56-2.55,2.32c-0.79,0.74-1.5,1.56-2.12,2.45c-0.63,0.88-1.14,1.84-1.51,2.86
			c-0.38,1.17-0.56,2.4-0.54,3.63c0,0.82,0.12,1.63,0.38,2.41c0.23,0.73,0.6,1.4,1.07,2c0.44,0.55,0.99,1,1.62,1.32
			c0.64,0.33,1.36,0.5,2.08,0.49c0.69-0.01,1.36-0.15,2-0.4c0.7-0.28,1.31-0.72,1.8-1.29c0.57-0.7,1-1.51,1.27-2.37
			c0.35-1.16,0.51-2.37,0.48-3.58v-8.64c8.34-8.85,11.71-19.72,13.47-31.27c3.62,0.78,4.74,0.28,6.09-2.73
			c0.93-2.22,1.07-4.69,0.41-7c1.8,1.04,3.68,1.92,5.63,2.64c3.85,1.11,6.29-0.93,6.19-4.88c-0.14-0.75,0.28-1.5,1-1.76
			c3.11-1.57,3.85-4.86,1.45-7.39C166.59,27.78,164.94,26.53,163.18,25.44z M129.85,90.2v1.11c0,0.47-0.04,0.94-0.12,1.4
			c-0.07,0.43-0.22,0.84-0.43,1.22c-0.21,0.35-0.59,0.55-1,0.52c-0.44,0-0.78-0.28-1-0.85c-0.26-0.67-0.38-1.39-0.36-2.11
			c-0.05-1.4,0.23-2.79,0.8-4.07c0.52-1.12,1.24-2.13,2.11-3L129.85,90.2z M133.91,38.2c-0.56,0.51-1.2,0.92-1.9,1.21
			c-2.41,1.14-3,0.78-3-1.85c0-1.78-1.07-3.38-2.71-4.07c-1.4-0.68-1.58-1.28-0.33-2.21c1.4-1.06,2.97-1.89,4.64-2.43
			c2.21-0.6,4.44-1.08,6.7-1.44c0.41,0.9,0.73,1.7,1.13,2.44s0.87,1.35,1.39,2.15C137.84,34.06,135.91,36.16,133.91,38.2z
			 M137.17,23.47c-2.5-0.55-5.19-0.94-7.74-1.77c-1.41-0.63-2.7-1.51-3.8-2.59c-0.66-0.55-0.56-1.24,0.38-1.6
			c2.24-0.64,3.62-2.88,3.2-5.17c-0.13-1.34,0.64-1.84,1.84-1.36c1.17,0.38,2.27,0.97,3.23,1.75c2,1.95,3.82,4.11,5.62,6.08
			C138.89,20.52,138.06,22,137.17,23.47z M151.05,45.38c-0.49,1.91-1,2.07-2.61,1.06c-1.49-1.1-3.51-1.1-5,0
			c-1.38,1-2.07,0.76-2.33-0.87c-0.28-1.48-0.28-2.99,0-4.47c0.54-2.4,1.46-4.72,2.22-7.05h5.56c0.76,2.85,1.65,5.93,2.39,9
			C151.39,43.83,151.31,44.63,151.05,45.38z M140.85,25.08c0.08-2.41,2.6-4.61,5.23-4.56c2.82,0.02,5.1,2.32,5.08,5.14
			c0,0.02,0,0.05,0,0.07c-0.1,2.79-2.39,5-5.18,5C143.03,30.52,140.77,28.03,140.85,25.08z M148.85,16.51
			c-0.08,0.26-0.65,0.48-1,0.5c-1.28,0.07-2.57,0.06-3.85-0.01c-0.48-0.05-0.91-0.31-1.16-0.72c-0.87-2.32-1.6-4.7-2.16-7.11
			c-0.19-1.44-0.1-2.9,0.26-4.3c0.23-1.2,1-1.52,2.14-0.68c1.61,1.31,3.9,1.37,5.58,0.16c1.47-0.93,1.85-0.78,2.33,0.92
			c0.2,0.72,0.27,1.48,0.49,2.69c-0.81,2.61-1.7,5.6-2.67,8.55L148.85,16.51z M158.97,12.17c0.7-0.5,1.5-0.84,2.34-1
			c1.1-0.34,1.83,0,1.71,1.32c-0.22,2.43,0.64,4.21,3,5.18c1.08,0.45,1.1,1.23,0.31,1.85c-1.05,0.99-2.28,1.77-3.62,2.32
			c-2.6,0.82-5.32,1.24-7.82,1.79c-0.91-1.59-1.72-3-2.72-4.8c2.06-2.12,4.35-4.45,6.76-6.66L158.97,12.17z M165.56,33.68
			c-1.85,0.67-3.02,2.5-2.85,4.46c0.05,2-0.48,2.46-2.38,1.72c-0.97-0.33-1.87-0.86-2.63-1.55c-2-2-3.81-4.11-5.62-6.08l2.74-4.76
			c3.94,1.69,9.27,0.47,12,5.51c-0.42,0.26-0.85,0.49-1.3,0.7H165.56z"/>
		<path class="st0" d="M33.39,41.45c0.22-0.27,0.37-0.58,0.46-0.92c0.1-0.32,0.15-0.66,0.15-1c0-0.21-0.03-0.42-0.07-0.63
			c-0.04-0.19-0.09-0.38-0.17-0.56c-0.06-0.15-0.14-0.29-0.24-0.42c-0.06-0.14-0.23-0.21-0.37-0.15c-0.02,0.01-0.04,0.02-0.06,0.04
			c-0.08,0.06-0.17,0.11-0.26,0.15c-0.14,0.06-0.29,0.11-0.44,0.14c-0.21,0.04-0.43,0.06-0.65,0.06h-3h-2.42h-2.55h-2.38h-1.85
			c-6.43,0-11.29,1.36-14.6,4.07C1.63,44.94-0.01,48.87,0,54c-0.01,1.32,0.17,2.63,0.52,3.9c0.31,1.12,0.73,2.2,1.26,3.24
			c0.43,0.85,0.95,1.64,1.55,2.37c0.41,0.51,0.88,0.97,1.39,1.38c0.12,0.11,0.26,0.19,0.41,0.24c0.13,0.03,0.27,0.05,0.4,0.05
			c0.33,0,0.66-0.11,0.93-0.3c0.31-0.21,0.59-0.47,0.83-0.76c0.25-0.3,0.44-0.64,0.59-1c0.15-0.35,0.23-0.74,0.23-1.12
			c0.01-0.23-0.06-0.46-0.19-0.65c-0.12-0.16-0.33-0.19-0.63-0.11c-0.38-0.39-0.73-0.8-1.06-1.24c-0.39-0.49-0.72-1.02-1-1.58
			c-0.31-0.64-0.55-1.31-0.72-2C4.33,55.63,4.24,54.81,4.25,54c-0.05-1.81,0.26-3.62,0.93-5.31c0.57-1.36,1.47-2.55,2.61-3.48
			c1.19-0.93,2.55-1.61,4-2c1.7-0.48,3.45-0.77,5.21-0.88V59.8h-3.94c-0.25-0.01-0.48,0.11-0.61,0.32c-0.14,0.23-0.21,0.49-0.2,0.76
			c0.01,0.3,0.05,0.6,0.14,0.89c0.1,0.31,0.23,0.6,0.41,0.87c0.16,0.25,0.37,0.47,0.62,0.65c0.22,0.17,0.49,0.26,0.77,0.26H17V72
			c0.05,1.01-0.07,2.02-0.33,3c-0.22,0.62-0.57,0.93-1.06,0.93c-0.13,0.02-0.25,0.02-0.38,0c-0.09-0.03-0.19-0.06-0.29-0.07
			c-0.06-0.03-0.12-0.03-0.18,0c-0.05,0-0.07,0.15-0.07,0.33c0.03,0.34,0.15,0.66,0.36,0.92c0.25,0.37,0.55,0.7,0.89,1
			c0.35,0.32,0.73,0.6,1.14,0.84c0.33,0.21,0.71,0.32,1.1,0.34c0.43,0,0.86-0.13,1.22-0.37c0.44-0.28,0.78-0.68,1-1.15
			c0.29-0.64,0.5-1.31,0.62-2c0.15-0.99,0.23-2,0.22-3v-9.22h6.21c0.24-0.01,0.46-0.15,0.58-0.36c0.19-0.27,0.35-0.57,0.46-0.88
			c0.13-0.35,0.23-0.72,0.29-1.09c0.06-0.33,0.08-0.67,0.05-1c0.01-0.22-0.09-0.43-0.25-0.57c-0.14-0.11-0.35-0.06-0.63,0.15h-6.78
			V42.23c0.56,0,1.18,0,1.86,0h2.09h2.11h1.93h1.5h0.87c0.38,0.01,0.76-0.08,1.09-0.26C32.91,41.84,33.17,41.67,33.39,41.45z"/>
		<path class="st0" d="M84.52,55.19c-0.35-0.01-0.69,0.07-1,0.24c-0.25,0.12-0.41,0.37-0.42,0.65c0.01,0.21,0.04,0.43,0.11,0.63
			c0.08,0.36,0.12,0.73,0.1,1.1v12c0,0.49-0.04,0.97-0.13,1.45c-0.08,0.43-0.23,0.84-0.44,1.22c-0.2,0.34-0.49,0.63-0.83,0.83
			c-0.39,0.21-0.83,0.31-1.27,0.3c-0.45,0.02-0.89-0.07-1.29-0.27c-0.33-0.19-0.59-0.45-0.78-0.78c-0.21-0.37-0.35-0.78-0.41-1.2
			c-0.09-0.5-0.14-1-0.16-1.51V57.54c0-0.64-0.29-1.25-0.78-1.66c-0.6-0.48-1.36-0.73-2.13-0.69c-0.35-0.01-0.7,0.07-1,0.24
			c-0.25,0.12-0.4,0.37-0.41,0.65c0.01,0.21,0.04,0.43,0.11,0.63c0.08,0.36,0.12,0.73,0.1,1.1v12c0,0.49-0.04,0.97-0.13,1.45
			c-0.08,0.43-0.23,0.84-0.45,1.22c-0.2,0.34-0.48,0.63-0.82,0.83c-0.39,0.21-0.83,0.31-1.27,0.3c-0.49,0.02-0.97-0.09-1.39-0.33
			c-0.34-0.2-0.62-0.5-0.8-0.85c-0.2-0.38-0.32-0.79-0.37-1.22c-0.06-0.46-0.09-0.93-0.09-1.4V57.54c0-0.64-0.29-1.25-0.78-1.66
			c-0.59-0.49-1.34-0.74-2.11-0.69c-0.35-0.01-0.69,0.07-1,0.24c-0.25,0.12-0.41,0.37-0.42,0.65c0,0.22,0.05,0.43,0.12,0.63
			c0.1,0.36,0.14,0.73,0.12,1.1v9v0.07c-0.08,0.51-0.22,1.01-0.42,1.49c-0.18,0.46-0.43,0.88-0.76,1.24
			c-0.32,0.36-0.71,0.64-1.14,0.84c-0.48,0.22-1,0.32-1.53,0.31h-0.54c-0.18-0.01-0.37-0.05-0.54-0.12
			c0.27-0.93,0.46-1.87,0.58-2.83c0.12-1,0.18-2,0.18-3c0.02-1.22-0.09-2.43-0.33-3.62c-0.21-0.99-0.54-1.95-1-2.86
			c-0.35-0.73-0.85-1.37-1.47-1.89c-0.49-0.43-1.13-0.67-1.78-0.68c-0.67-0.01-1.32,0.16-1.89,0.51c-0.55,0.35-1.01,0.82-1.35,1.38
			c-0.38,0.62-0.65,1.29-0.81,2c-0.19,0.79-0.29,1.59-0.28,2.4c-0.01,1.85,0.33,3.69,1,5.42c0.6,1.59,1.59,3.01,2.87,4.13
			c-0.32,0.58-0.76,1.09-1.29,1.49c-0.56,0.39-1.23,0.59-1.91,0.56c-0.52,0-1.03-0.15-1.48-0.42c-0.5-0.31-0.92-0.73-1.23-1.23
			c-0.39-0.65-0.68-1.37-0.84-2.11c-0.22-0.98-0.32-1.99-0.3-3c-0.01-1.14,0.07-2.28,0.26-3.41c0.14-0.82,0.35-1.62,0.64-2.4
			c0.23-0.58,0.52-1.13,0.86-1.65c0.29-0.43,0.54-0.82,0.75-1.15c0.35-0.22,0.57-0.59,0.61-1c0.06-0.42,0.03-0.85-0.1-1.25
			c-0.14-0.39-0.37-0.74-0.67-1.03c-0.25-0.29-0.61-0.46-1-0.46c-0.3,0-0.75,0.29-1.35,0.87c-0.73,0.74-1.34,1.58-1.82,2.5
			c-1.56,2.85-2.35,6.05-2.31,9.3c0,0.72,0.05,1.43,0.14,2.14c-0.05,0.16-0.1,0.32-0.17,0.47c-0.26,0.66-0.6,1.28-1,1.86
			c-0.4,0.55-0.87,1.02-1.42,1.42c-0.5,0.36-1.1,0.55-1.72,0.56c-0.85,0.08-1.68-0.3-2.18-1c-0.48-0.8-0.71-1.73-0.67-2.66v-3.17
			c0.27-0.33,0.5-0.7,0.67-1.1c0.32-0.63,0.69-1.44,1.1-2.44s0.84-2.14,1.29-3.42s0.85-2.63,1.23-4s0.69-2.82,0.93-4.26
			c0.24-1.36,0.36-2.75,0.37-4.13c0-0.51,0-1.08,0-1.7s-0.07-1.25-0.15-1.88c-0.1-0.65-0.26-1.28-0.47-1.9
			c-0.19-0.58-0.47-1.13-0.82-1.63c-0.36-0.47-0.81-0.86-1.34-1.14c-0.62-0.31-1.31-0.45-2-0.43c-0.67-0.01-1.32,0.17-1.9,0.5
			c-0.62,0.36-1.15,0.84-1.57,1.42c-0.46,0.66-0.79,1.4-1,2.18C33.15,43.79,33,44.72,33,45.66v24.45c-0.01,0.98,0.12,1.96,0.4,2.9
			c0.24,0.82,0.66,1.58,1.21,2.23c0.55,0.63,1.23,1.12,2,1.44c0.87,0.35,1.79,0.53,2.73,0.51c1.15,0.02,2.28-0.28,3.25-0.89
			c0.94-0.59,1.77-1.32,2.47-2.18c0.18-0.22,0.32-0.45,0.49-0.67c0.15,0.26,0.31,0.52,0.48,0.77c1.34,1.98,3.61,3.12,6,3
			c1.37,0.05,2.72-0.32,3.88-1.06c1.06-0.72,1.94-1.67,2.57-2.79c0.41,0.14,0.82,0.23,1.25,0.29c0.46,0.05,0.92,0.07,1.38,0.07
			c0.84,0.01,1.67-0.13,2.46-0.42c0.45-0.17,0.88-0.4,1.28-0.67c0,0.13,0,0.26,0.09,0.39c0.16,0.55,0.38,1.08,0.67,1.57
			c0.3,0.52,0.69,0.98,1.16,1.35c0.54,0.42,1.15,0.73,1.8,0.93c0.83,0.25,1.69,0.36,2.56,0.34c0.5-0.01,1-0.08,1.48-0.22
			c0.48-0.14,0.95-0.34,1.39-0.58c0.41-0.23,0.8-0.5,1.16-0.81c0.32-0.28,0.58-0.62,0.78-1c0.2,0.37,0.46,0.71,0.76,1
			c0.33,0.31,0.7,0.59,1.1,0.81c0.44,0.24,0.91,0.43,1.39,0.56c0.53,0.14,1.08,0.21,1.63,0.21c1.16,0.05,2.31-0.18,3.35-0.68
			c0.8-0.4,1.49-1,2-1.74c0.49-0.72,0.83-1.52,1-2.37c0.16-0.84,0.24-1.69,0.24-2.55V57.54c0-0.64-0.28-1.25-0.77-1.66
			C86.05,55.39,85.29,55.14,84.52,55.19z M37.09,44.48c0-0.21,0-0.44,0-0.69c0.02-0.24,0.07-0.48,0.15-0.71
			c0.05-0.2,0.14-0.38,0.26-0.54c0.08-0.13,0.21-0.2,0.36-0.21c0.44,0,0.79,0.41,1.05,1.25c0.31,1.28,0.45,2.6,0.4,3.92
			c0,0.49,0,1.08-0.1,1.77s-0.14,1.43-0.24,2.22s-0.23,1.59-0.37,2.41s-0.29,1.61-0.46,2.36s-0.34,1.44-0.52,2.06
			c-0.15,0.51-0.34,1-0.57,1.48L37.09,44.48z M56.29,68.12c-1.32-1.82-2.02-4.02-2-6.27c0-1.7,0.3-2.55,0.92-2.55
			c0.3,0.01,0.56,0.21,0.66,0.49c0.2,0.42,0.33,0.86,0.4,1.32c0.1,0.66,0.16,1.33,0.18,2c0,0.78,0,1.62,0,2.53
			C56.45,66.47,56.4,67.3,56.29,68.12z"/>
		<path class="st0" d="M91.85,48.89c0.29,0.3,0.63,0.54,1,0.71c0.39,0.17,0.82,0.26,1.25,0.26c0.89,0,1.74-0.36,2.35-1
			c0.28-0.29,0.51-0.63,0.68-1c0.17-0.4,0.26-0.83,0.25-1.27c0.01-0.45-0.08-0.89-0.25-1.31c-0.3-0.79-0.93-1.42-1.72-1.72
			c-0.42-0.17-0.86-0.25-1.31-0.25c-0.43,0-0.85,0.09-1.25,0.25c-0.78,0.32-1.39,0.94-1.71,1.72c-0.18,0.41-0.27,0.86-0.27,1.31
			c0,0.44,0.09,0.87,0.27,1.27C91.31,48.24,91.55,48.59,91.85,48.89z"/>
	</g>
</g>
</svg>
